<svg width="457" height="320" viewBox="0 0 457 320" fill="none" xmlns="http://www.w3.org/2000/svg">
  <path
    d="M360.484 117.297C361.692 117.285 363.443 117.85 364.1 119.369C369.191 123.287 394.911 125.999 402.105 127.937C403.234 118.267 413.742 111.7 420.022 104.881C427.025 89.3035 431.155 76.6748 432.643 66.2839C432.907 61.9497 434.117 58.9597 436.338 57.1364C438.748 55.1598 442.323 54.5441 447.562 55.2101C447.689 55.0209 447.852 54.7813 448.015 54.5393C440.03 52.6537 440.068 50.3609 447.287 49.4768C451.921 49.8242 452.977 44.9199 454.87 47.0953C454.93 43.8082 449.961 41.4434 449.254 35.9976C447.883 34.1552 445.061 33.2471 443.765 31.1675C435.549 49.4145 424.322 35.6741 410.841 37.4591C393.797 29.8905 368.506 43.7123 355.3 27.2407C353.342 31.7257 359.394 38.6666 355.637 42.4018C354.986 42.4952 354.583 41.9418 354.262 41.4986C351.804 39.2153 354.229 46.1513 351.773 46.7766C349.7 48.4873 351.366 48.1088 352.873 48.4466C355.865 48.6143 358.515 49.968 356.306 52.9628C352.47 60.759 350.541 67.156 359.248 62.8961C361.677 62.956 359.794 70.2131 363.621 70.0598C367.66 70.4503 367.198 73.5099 366.51 76.8641C366.934 77.6379 367.679 79.1977 366.92 80.4842C363.613 82.044 356.716 82.71 357.087 87.2933C356.85 95.5735 359.801 102.895 350.647 108.607C355.693 115.153 348.335 121.073 360.484 117.297ZM402.75 129.621C401.379 129.154 396.72 128.251 391.049 127.336C372.277 124.159 363.525 122.268 362.724 119.772C361.426 118.258 359.833 118.629 357.398 119.415C349.08 123.263 353.036 112.163 349.027 109.005C348.663 108.7 348.718 108.075 349.137 107.845C363.793 100.744 346.607 81.8667 365.415 79.6121C366.57 79.3126 365.017 77.6883 365.053 76.9024C367.416 67.1368 360.151 76.1836 358.989 64.602C347.194 69.7579 353.014 55.7228 355.649 50.7562C353.474 49.2995 345.901 50.0853 350.872 45.653C351.644 45.2121 351.689 44.6635 351.586 43.238C350.879 41.0553 353.484 37.6412 355.36 40.5642C355.604 36.5415 353.225 32.3774 353.565 28.3404C353.831 25.2042 355.923 24.8089 357.398 27.6911C371.508 41.2446 394.563 28.6998 411.241 36.0695C424.864 34.1839 435.681 48.3124 443.116 28.9992C443.343 28.3332 444.409 28.441 444.493 29.1478C445.016 32.0444 449.065 32.9069 450.531 35.3244C451.389 39.6082 454.788 43.5757 456.279 44.9342C456.698 45.4373 456.35 48.7125 455.814 48.7964C455.299 49.0599 454.762 48.8228 453.825 48.1112C450.938 51.5277 447.433 50.3154 444.007 51.6499C445.746 52.4285 448.466 53.3893 449.053 53.1904C449.918 52.8718 450.447 53.8685 449.726 54.58C449.266 55.0616 448.593 56.8178 447.809 56.6932C438.786 55.5408 434.716 57.5988 434.076 66.3989C432.555 76.9839 428.362 90.0486 421.165 105.761C414.035 112.599 404.513 120.388 402.75 129.621Z"
    fill="#ded6ca" />
  <path
    d="M311.055 178.15C306.776 178.979 313.302 187.031 311.525 189.47C302.336 200.082 294.092 233.214 316.158 231.115C317.613 230.945 319.534 228.846 321.228 226.994C325.902 221.601 326.101 223.116 329.64 226.748C335.186 223.516 337.975 224.189 341.188 228.789C344.288 233.018 342.623 228.6 344.799 223.092C346.262 223.329 346.25 224.107 347.499 222.358C350.98 217.579 350.12 227.56 358.64 219.4C360.549 209.663 364.411 213.949 370.3 214.174C372.073 212.289 371.63 208.587 375.703 211.469C377.548 213.132 377.902 211.524 379.287 210.281C381.513 211.678 385.315 212.222 388.619 212.011C390.737 213.086 389.76 216.124 391.298 217.08C394.194 216.663 402.767 219.486 405.261 220.629C409.387 221.671 402.316 213.357 405.474 202.564C414.219 186.047 402.628 163.854 400.86 146.081C392.445 148.204 374.946 148.417 372.339 155.99C372.797 159.191 372.986 160.516 372.186 161.235C371.448 161.896 370.372 161.621 368.228 161.072C367.603 160.837 366.582 160.811 365.887 160.384C363.091 157.574 362.056 157.337 361.687 157.445C359.816 159.678 360.439 165.315 357.566 167.747C351.447 170.27 348.907 168.751 347.542 167.934C344.224 168.676 347.686 176.597 338.169 172.476C334.65 169.165 332.956 173.823 330.339 171.793C329.019 170.181 327.33 175.275 325.687 173.811C322.227 167.431 316.858 180.778 311.055 178.15ZM313.552 232.749C292.255 231.065 301.668 199.147 310.322 188.663C310.461 185.939 306.884 180.105 308.685 177.802C309.179 177.076 310.209 176.626 311.333 176.736C316.767 178.799 321.82 165.818 326.453 172.277C328.911 169.709 329.987 169.707 331.216 170.653C333.686 171.381 334.882 167.843 338.375 171.01C345.735 174.925 343.653 168.046 346.54 166.276C349.962 166.53 349.914 169.309 356.84 166.491C359.349 163.784 358.307 157.572 361.28 156.065C362.679 154.953 365.758 159.225 368.585 159.68C372.31 160.887 371.299 159.917 370.916 156.194C372.885 146.769 392.884 146.577 401.911 144.581C404.02 162.716 415.681 185.711 406.861 202.947C404.499 213.431 408.284 215.87 408.038 221.314C404.784 223.803 394.561 217.241 391.396 218.523C389.621 218.475 389.105 216.587 388.921 215.43C388.923 211.654 382.32 214.519 379.635 212.025C378.441 214.081 376.419 213.947 374.888 212.655C372.222 210.231 372.758 215.13 371.007 215.425C365.394 216.776 361.747 210.017 359.924 220.061C358.086 222.842 350.831 226.532 349.415 222.411C349.217 222.529 348.843 222.986 348.613 223.269C347.875 224.206 346.9 225.289 345.625 224.939C344.938 230.37 344.204 231.64 343.2 231.925C342.079 232.244 341.188 231.111 340.059 229.678C334.261 220.468 331.005 233.087 326.362 225.387C323.95 223.302 319.723 234.319 313.552 232.749Z"
    fill="#ded6ca" />
  <path
    d="M95.4297 105.318C98.0204 107.586 99.1841 102.514 102.045 104.017C105.189 107.347 106.155 103.765 109.008 103.691C113.18 107.007 111.348 99.4692 109.643 97.8424C108.836 95.7005 105.971 97.4734 103.87 97.6914C93.8954 94.3732 91.0048 94.0761 95.4297 105.318ZM96.7618 107.376C91.7051 106.539 91.3417 95.8898 93.0046 95.4321C94.6048 93.3166 98.7555 94.6415 104.551 96.1173C109.95 92.5738 114.78 100.998 112.262 105.353C111.684 106.027 110.576 106.501 108.541 105.126C105.974 106.726 104.686 108.102 101.333 105.267C99.9771 104.886 98.5631 107.582 96.7618 107.376ZM124.418 163.154C126.166 163.969 125.053 167.337 126.272 168.66C129.584 166.585 140.106 167.718 145.267 167.376C151.738 167.112 142.864 166.125 145.588 155.7C151.53 158.817 151.183 154.311 153.237 149.871C156.02 149.169 156.085 151.608 159.994 148.266C163.624 148.074 169.379 140.669 163.887 140.971C161.346 141.081 159.239 139.993 160.566 137.207C162.491 136.212 164.644 134.181 166.372 132.424C162.959 127.884 167.413 127.939 168.536 125.232C166.296 119.429 162.233 112.28 161.299 106.753C164.005 100.847 158.369 103.245 165.516 93.4651C165.186 90.8344 163.045 89.7491 163.359 86.1026C155.35 76.4256 152.576 88.8435 146.351 79.3798C141.826 77.2882 140.939 75.6805 140.001 73.9795C139.456 72.7264 138.241 71.3464 136.217 69.7004C134.81 67.3956 131.336 61.8946 129.849 64.7026C123.125 72.8318 124.785 65.074 118.718 70.2946C119.187 72.4006 126.088 98.2209 119.472 89.5167C113.168 94.5816 118.126 97.9814 114.616 98.7983C117.308 104.445 120.37 101.113 123.344 105.253C123.567 98.978 128.474 100.979 126.748 98.633C123.71 95.5208 124.026 94.8547 124.195 94.4953C128.973 91.9629 131.409 106.02 128.637 107.864C127.063 110.476 122.375 108.585 121.449 110.792C120.181 112.069 116.68 110.207 115.867 111.607C112.829 115.541 121.09 125.203 120.859 125.644C123.876 130 119.199 130.146 116.848 135.223C118.706 134.346 119.932 134.025 122.701 134.559C124.632 131.217 129.502 131.782 132.469 132.125C134.52 131.449 137.038 130.422 138.533 132.475C142.474 126.368 154.632 141.706 141.758 134.686C138.748 137.125 147.455 145.175 137.802 142.085C132.151 136.208 129.252 144.272 123.168 140.235C122.021 140.455 122.91 141.749 123.237 142.779C123.814 144.179 124.603 146.091 122.882 146.814C115.959 146.826 124.892 162.323 120.697 165.672C120.891 166.295 121.044 166.705 121.16 166.971C121.823 165.488 122.497 163.279 124.418 163.154ZM126.18 170.354C124.093 169.501 124.284 166.664 123.918 164.86C122.822 165.694 122.636 168.825 121.112 168.808C120.692 169.139 118.78 166.652 119.389 164.98C122.629 161.623 116.547 149.785 119.694 146.359C120.32 145.671 121.237 145.357 122.421 145.417C122.559 143.654 119.213 139.054 123.254 138.764C129.286 142.66 132.41 134.614 138.695 140.944C140.457 141.44 140.994 141.349 141.127 141.301C139.224 137.676 138.438 130.51 144.685 134.339C141.78 131.284 140.841 132.17 138.453 134.609C136.538 132.391 136.104 132.18 132.94 133.543C127.83 133.206 126.423 132.621 122.943 136.076C119.805 134.152 113.757 139.598 114.355 136.584C117.44 131.167 118.85 130.29 120.546 127.999C119.349 125.783 106.103 107.402 120.299 109.8C124.299 105.873 129.535 110.977 128.223 101.017C123.554 101.062 125.989 108.705 122.485 106.681C121.593 104.788 120.564 104.536 119.139 104.187C117.239 103.722 114.874 103.144 112.808 98.3192C112.587 97.8424 113.01 97.2578 113.535 97.3225C114.246 97.3129 114.727 97.598 114.549 97.0517C114.305 95.6238 113.797 92.6577 118.89 88.1031C119.586 87.6024 120.254 88.2229 120.823 88.8794C121.075 83.0239 118.174 76.0064 117.236 70.1317C119.432 66.5283 123.283 66.442 124.215 67.2399C124.852 67.5369 125.066 67.6376 126.078 66.0874C127.457 65.4286 128.623 63.9623 129.686 62.6973C132.584 60.8788 136.739 67.7669 137.405 68.8834C139.797 70.6324 140.574 72.0412 141.26 73.287C141.871 74.9114 143.687 76.4688 147.499 78.4813C149.595 82.3554 150.971 81.9505 153.252 81.2821C155.475 80.398 160.706 79.7391 164.812 85.9037C164.632 88.163 165.363 89.4568 166.008 90.5972C169.214 94.8427 161.086 99.9244 163.327 102.747C163.797 103.866 164.028 104.85 162.698 107.205C163.913 111.082 166.107 116.08 168.049 120.503C170.539 125.802 170.887 125.805 166.622 129.327C166.192 129.607 167.594 131.337 168.076 132.657C166.395 134.454 164.078 137.08 161.769 138.074C161.089 139.653 162.581 139.411 163.941 139.533C171.501 139.511 165.748 149.023 160.527 149.61C158.868 151.012 156.837 152.214 154.197 151.177C153.059 154.776 151.38 160.363 146.624 157.61C145.719 164.381 149.859 164.948 149.235 167.55C147.139 170.483 128.728 167.263 126.18 170.354Z"
    fill="#ded6ca" />
  <path
    d="M178.663 268.208C185.648 272.133 187.028 259.07 194.069 256.655C202.905 256.471 203.921 258.452 208.523 249.815C218.531 254.319 212.038 249.427 222.024 247.908C223.953 247.573 225.031 247.388 229.159 242.215C227.966 239.515 226.358 235.387 230.209 233.152C230.827 230.468 231.668 230.128 233.261 230.399C234.456 230.782 235.52 230.349 234.15 229.1C232.156 228.214 234.037 223.226 236.929 224.944C235.599 219.222 239.54 217.773 243.554 219.035C243.599 218.032 243.458 215.715 243.482 214.234C244.232 210.099 245.315 209.943 242.099 207.887C237.554 204.049 235.865 202.88 229.645 201.191C229.492 201.198 228.955 201.39 227.523 203.124C227.317 203.424 227.051 203.628 226.687 203.57C222.817 202.777 223.701 199.02 224.468 195.422C225.824 192.012 223.78 187.903 226.452 186.023C228.905 184.683 225.235 179.422 226.555 177.225C227.647 174.017 231.361 171.93 234.308 170.739C238.474 168.248 237.969 164.635 243.055 163.176C244.234 162.306 241.831 159.1 243.221 157.883C246.424 155.758 246.148 150.365 247.504 146.9C247.722 143.153 243.055 144.054 239.349 143.932C236.8 143.997 234.365 144.059 232.64 143.474C232.329 144.607 231.085 144.643 230.127 144.457C226.615 143.364 224.504 151.711 221.588 151.098C218.878 149.895 221.382 140.027 217.319 139.883C212.172 143.201 206.164 136.102 203.408 143.261C199.505 145.65 195.485 146.536 194.79 142.88C194.321 141.363 194.393 141.79 191.604 142.868C186.855 148.539 186.853 153.657 176.155 150.849C170.658 150.657 165.615 145.707 160.617 149.533C157.301 152.176 156.799 151.694 154.393 151.184C152.492 153.822 152.227 161.455 146.712 157.265C146.607 158.511 146.914 160.008 146.613 161.302C145.945 163.499 151.717 167.011 148.819 168.657C148.344 168.645 143.775 168.159 143.439 168.145C138.55 170.826 132.016 167.404 127.252 169.781C128.367 171.343 129.153 171.082 130.122 170.761C134.822 168.997 134.013 177.338 133.749 180.311C132.066 186.466 136.737 189.858 136.93 194.315C137.087 195.565 137.209 197.111 137.985 198.968C140.296 194.413 141.044 198.668 142.267 197.597C143.548 196.205 144.705 197.024 145.884 199.087C156.37 200.601 157.821 207.078 163.606 212.967C165.655 208.45 167.523 208.29 169.72 208.57C177.62 209.806 173.802 193.646 179.548 192.269C187.229 188.052 200.011 199.375 195.545 207.744C185.135 214.56 191.58 228.648 189.814 238.993C183.82 247.141 181.927 258.572 178.663 268.208ZM181.381 270.513C173.676 270.226 179.32 264.078 179.875 259.25C181.656 247.757 190.835 239.645 188.353 227.905C187.744 219.955 187.116 211.74 194.536 206.689C197.395 199.416 186.704 190.096 180.229 193.536C177.517 194.871 176.722 198.512 177.077 203.117C174.348 210.034 172.14 210.329 169.537 209.996C167.838 209.78 166.496 209.608 164.52 214.486C159.245 214.531 156.723 200.7 145.351 200.467C144.46 200.072 143.74 198.153 143.537 198.361C143.088 198.761 142.759 199.324 141.907 199.346C141.316 199.351 140.746 198.996 140.089 198.311C139.473 198.984 139.16 200.455 138.067 200.51C135.523 199.935 135.908 195.779 135.501 194.475C135.265 192.362 135.095 190.834 132.634 188.102C131.138 183.366 133.342 177.606 132.167 172.814C131.716 171.746 131.488 171.822 130.575 172.124C129.37 172.524 127.549 173.128 125.628 169.918C125.432 169.589 125.526 169.168 125.841 168.954C130.838 165.485 137.888 169.52 142.935 166.784C143.596 166.443 145.643 167.066 148.03 167.138C147.187 165.157 144.702 163.542 145.205 161.014C145.628 159.558 144.601 156.702 146 155.918C148.899 155.811 150.5 159.246 151.814 153.396C153.56 146.407 155.141 152.61 159.748 148.388C165.536 144.035 170.516 149.112 176.441 149.44C186.211 152.202 185.978 147.164 190.586 141.845C194.74 139.353 195.509 140.602 196.798 143.738C197.337 144.004 198.708 143.989 202.179 142.466C205.598 134.451 211.454 141.598 216.794 138.527C221.821 138.074 220.853 144.071 221.72 147.118C221.682 154.605 225.39 140.705 231.265 143.081C231.258 143.077 231.332 142.933 231.282 142.456C231.203 141.888 231.907 141.433 232.389 141.78C235.757 143.738 245.547 140.908 248.139 144.121C250.125 146.766 247.013 157.068 244.246 158.923C244.16 160.698 246.026 163.276 243.544 164.532C238.812 165.912 239.33 169.582 235.005 171.997C231.339 173.298 225.328 177.239 228.639 182.101C229.562 187.017 227.125 185.841 226.294 189.171C227.971 192.448 222.968 200.019 226.536 202.063C228.333 199.236 230.333 199.717 233.016 200.817C237.113 201.342 239.943 204.543 242.885 206.685C247.004 208.474 245.106 211.462 244.95 216.208C244.993 219.979 245.37 220.839 243.077 220.391C242.214 219.828 236.984 219.694 238.273 223.163C238.582 224.39 238.438 227.589 236.397 226.283C234.972 225.452 234.217 227.701 235.23 228.152C235.796 228.799 236.572 229.683 236.246 231.18C235.422 232.61 233.131 231.587 232.255 231.793C232.022 231.487 231.821 233.696 231.172 234.264C227.726 235.684 229.947 238.971 230.556 242.767C223.685 251.555 224.358 247.506 217.105 251.095C213.615 255.525 212.11 252.288 208.892 251.373C204.189 264.885 194.395 251.09 187.226 265.705C185.528 268.228 183.99 270.513 181.381 270.513Z"
    fill="#ded6ca" />
  <path
    d="M320.794 113.71C322.512 113.71 323.715 114.872 324.834 115.953C333.833 123.155 328.08 109.436 336.83 110.993C338.691 111.118 340.888 111.02 342.937 109.491C353.172 106.463 356.318 104.932 355.611 93.6568C355.271 86.8645 355.829 80.8963 365.772 79.5187C364.287 75.4745 367.37 72.9324 363.252 71.2697C361.383 70.3209 359.088 69.1589 358.86 64.6187C345.477 69.8609 355.225 55.6198 355.055 50.1764C352.839 50.0087 347.53 49.956 349.751 46.5203C351.797 45.435 351.694 44.4574 351.564 43.2188C350.695 41.441 353.618 37.6292 355.321 40.5114C355.498 37.3105 353.968 33.228 353.381 29.1598C355.515 26.2105 351.828 23.2803 349.008 20.7694C336.497 12.7528 340.337 27.5354 327.539 17.5278C319.812 13.4692 312.694 14.3892 304.438 13.6776C304.617 11.7154 301.196 6.67925 298.1 7.01707C296.289 16.5934 294.595 11.8615 291.076 7.79573C290.484 10.3761 291.09 13.7783 288.239 15.2996C288.984 20.0602 286.73 19.7104 286.579 22.9592C289.43 27.1448 287.571 33.8006 291.893 36.8817C291.85 45.5452 298.546 55.0376 294.027 63.392C294.636 66.1305 297.71 68.7013 296.637 71.7201C300.657 76.2052 304.138 72.7216 298.12 82.8034C296.1 85.3934 294.789 89.4903 294.866 92.0899C295.161 92.6146 296.306 92.7607 297.521 92.914C305.854 94.4402 313.542 109.211 311.218 117.675L314.884 116.631C317.253 115.438 319.294 113.368 320.794 113.71ZM310.147 119.446C310.782 108.784 308.003 103.636 300.631 95.0991C297.327 93.8892 291.22 94.6942 293.944 89.1837C293.874 84.102 299.526 80.4507 299.756 75.5703C293.433 73.668 296.586 71.1092 294.241 67.2878C290.304 62.1103 297.01 58.8375 292.346 47.2342C291.445 43.9591 290.513 40.5761 290.458 37.2794C287.839 35.5304 287.458 32.514 287.091 29.5934C287.3 26.0475 283.649 22.7843 285.999 19.9764C286.605 19.0132 287.23 18.0189 286.739 14.981C286.687 14.6432 286.876 14.3149 287.194 14.1927C290.762 13.4811 287.868 5.93416 291.231 5.9677C293.44 7.94909 294.219 9.42734 295.453 11.1092C296.035 10.1916 296.244 7.25908 297.087 5.91979C300.3 4.07975 305.432 9.60221 305.717 12.494C313.966 12.4653 320.619 12.4821 328.344 16.3346C341.186 25.887 336.101 10.6899 349.839 19.5978C352.566 22.135 357.164 25.2209 354.77 29.6365C356.073 33.8868 356.744 37.6891 356.768 40.9499C356.725 42.3299 354.926 42.9816 354.262 41.4986C353.402 40.0131 352.681 42.0927 352.995 43.0702C353.496 45.3823 352.413 45.7799 350.774 48.0608C351.636 48.8826 354.679 48.3076 355.791 48.9209C358.977 51.0485 351.507 61.3819 353.409 64.0006C354.147 65.5747 360.238 61.5352 360.283 63.5574C359.837 72.8007 368.966 67.2877 366.539 76.9168C367.035 77.8416 367.473 79.0443 367.123 80.0099C347.515 84.1356 365.559 101.477 349.777 109.129C345.63 108.542 340.678 113.533 336.777 112.428C333.289 111.923 332.879 113.38 331.88 118.162C323.355 123.361 324.34 110.037 316.486 117.587C315.921 118.088 312.433 118.701 310.147 119.446Z"
    fill="#ded6ca" />
  <path
    d="M46.745 144.219C54.1555 153.149 62.3539 143.85 63.0974 134.272C63.445 132.01 67.0271 126.816 69.8288 126.555C70.3195 126.123 73.3913 127.858 72.2154 129.456C66.5977 132.793 71.12 136.907 75.4208 132.781C75.9246 130.194 74.041 129.19 74.6503 127.122C74.581 126.82 77.9992 124.3 79.8259 125.448C80.9742 121.653 84.4077 126.224 86.0925 126.614C87.0137 124.532 86.0036 123.203 84.9396 121.576C85.0735 119.12 84.2554 117.223 82.4369 115.253C77.9209 111.597 82.0107 106.935 77.6396 103.866C74.1996 101.211 68.5104 101.482 64.896 101.669C60.4993 98.1275 61.524 95.4345 62.2725 93.4699C64.5035 89.6724 57.2517 88.9393 55.2691 89.4544C53.6202 95.4465 53.7237 98.0364 50.1589 98.5084C45.3969 99.0044 51.4707 107.318 45.3394 104.884C50.9249 109.321 19.0954 109.321 17.1433 109.68C17.6507 116.43 29.1804 119.072 33.117 116.902C42.1684 115.665 43.928 123.576 45.1506 130.268C45.7596 133.433 46.3888 136.703 47.7626 138.951C49.5501 140.573 48.3021 142.916 46.745 144.219ZM53.0797 149.296C50.8367 149.296 48.0517 148.247 45.1774 144.567C44.6625 143.247 47.6586 141.929 47.2127 140.925C45.4685 138.038 44.3274 134.435 43.7394 130.539C41.5345 110.157 30.2894 124.276 19.0094 115.536C16.4312 113.6 14.2656 109.803 16.5798 108.224C20.985 108.432 37.4344 107.158 44.2392 105.818C42.3987 103.83 44.1146 102.845 46.7546 103.719C46.0325 92.3414 53.0857 102.153 53.2827 90.0821C54.2106 85.1466 67.2204 88.8411 63.6156 93.9802C59.5091 105.478 80.1869 94.9961 81.4881 108.025C79.633 113.174 87.2809 115.627 86.2976 121.027C87.4251 122.635 88.9132 125.297 86.9553 127.832C85.1195 129.188 82.5217 125.055 81.2737 125.52C81.2773 126.914 79.845 127.772 78.8991 126.562C73.1402 127.774 77.8902 129.01 76.8078 133.239C74.1047 136.73 68.9658 137.032 68.054 133.328C66.9495 131.459 72.5486 128.093 69.9628 127.985C61.1627 131.859 65.8291 148.462 53.0797 149.296Z"
    fill="#ded6ca" />
  <path
    d="M166.023 90.9063C169.603 94.481 161.05 99.7663 163.283 103.022C167.397 97.4231 168.132 97.3944 173.789 98.3815C180.679 97.955 178.092 84.5357 191.939 86.7327C200.361 88.1606 190.631 79.6721 200.521 70.618C202.376 68.7277 204.654 68.869 207.294 69.0344C210.22 69.262 213.703 69.3339 217.745 67.1488C223.601 66.0898 219.14 76.1022 226.406 80.5777C235.324 83.3449 229.075 85.6665 240.099 87.9882C243.149 92.4014 241.869 98.8511 248.709 101.165C261.52 103.832 249.682 86.9771 260.655 90.384C264.426 86.6225 255.696 84.9118 262.975 73.8165C266.623 68.3468 257.399 62.2421 264.882 60.9076C269.446 60.0451 270.023 60.196 273.742 62.2133C276.037 59.4557 280.405 58.3488 284.53 57.273C289.128 58.2913 293.323 59.4796 294.097 58.459C295.427 55.4114 291.512 46.0531 291.004 41.8435C290.446 38.8583 289.921 36.0408 287.745 33.6089C287.817 29.9456 285.685 25.3001 285.16 21.5769C285.87 20.3094 288.586 16.131 285.335 15.1631C283.831 14.0897 282.319 8.74214 282.491 5.90063C280.912 4.25227 278.09 -0.709594 276.447 2.59432C276.887 3.10943 277.932 3.12139 277.654 4.00068C276.2 8.3468 283.215 14.7127 276.545 17.2475C273.164 17.9423 269.633 10.1653 266.894 8.68944C265.459 8.36839 263.827 4.0031 262.692 2.0289C261.678 7.96349 263.341 14.5282 267.062 20.7838C267.366 21.2678 266.952 21.9362 266.377 21.8739C260.303 21.8739 258.2 22.8587 257.505 23.6876C256.407 24.9119 258.104 26.7136 256.879 27.8397C255.83 28.6926 253.887 28.362 236.421 21.3397C236.146 21.7973 235.868 22.9617 236.538 25.8583C234.818 29.8714 230.851 25.0557 228.601 24.4423C220.007 32.0205 212.944 9.90893 212.383 19.5811C211.854 24.3225 216.693 26.1817 214.149 31.0286C213.298 33.0292 211.502 35.08 209.575 34.862C207.227 35.4849 206.6 28.5321 204.41 27.8972C203.875 29.1215 204.173 32.5236 201.436 31.7497C206.59 35.0872 202.249 39.2584 198.049 34.6871C195.248 31.2849 194.143 35.1734 191.712 35.2429C187.195 34.7254 186.616 27.9163 180.425 31.4143C179.287 40.6504 177.487 40.4108 168.779 41.2494C169.498 43.3626 173.047 45.871 172.461 48.5592C168.384 53.5067 164.456 44.9103 161.331 43.0008C158.688 42.1958 157.355 45.919 158.456 47.6488C161.069 51.578 165.844 56.6357 162.196 61.5449C161.91 61.933 161.265 61.909 161.018 61.4898C157.338 54.9945 151.087 62.5056 145.135 60.1648C130.575 58.1811 141.77 63.6892 136.64 67.652C141.545 71.4925 140.963 75.9465 144.334 76.2843C146.018 76.5982 147.065 78.0477 148.071 79.4253C149.284 81.0904 150.103 82.1063 151.443 81.7948C159.367 78.1363 164.71 83.7714 166.023 90.9063ZM163.341 104.881C157.166 101.515 167.599 95.0728 164.843 91.7545C163.894 85.4006 158.513 79.5882 152.032 83.1101C149.615 83.9199 148.115 81.9553 146.908 80.271C146.051 79.0923 145.24 77.9782 144.159 77.7122C141.042 77.4151 139.914 74.6527 139.341 72.5611C138.259 70.6564 135.444 69.7459 134.981 67.259C134.778 66.2264 136.167 66.5331 136.574 66.0347C137.06 64.4367 134.99 61.5257 136.183 59.8462C139.799 56.3506 146.639 59.8725 151.034 59.0076C154.654 57.3257 158.382 55.6414 161.597 59.8102C163.462 56.1254 159.52 51.8296 157.277 48.4706C155.175 45.4853 158.332 40.1233 161.904 41.683C164.895 42.7037 167.437 50.3465 171.068 48.0704C171.245 45.8015 166.891 43.0631 167.397 40.8541C167.532 40.2887 168.175 39.7424 168.922 39.613C178.358 39.5196 177.339 38.4199 179.412 30.329C188.911 24.6939 188.41 38.6691 195.198 31.4C197.27 31.1316 200.619 36.3953 202.373 34.989C202.467 33.7359 200.236 33.0986 199.692 32.205C199.307 31.0454 200.411 29.9241 201.592 30.3194C202.447 30.4344 202.567 30.3937 202.615 29.3419C202.723 24.3896 206.913 26.8574 207.793 29.9049C208.138 31.9031 208.864 33.3765 209.741 33.434C212.537 33.2855 214.985 26.9508 212.088 24.8137C210.696 23.4504 211.128 21.3636 210.948 19.6721C212.383 7.65203 219.437 24.955 224.396 24.5046C227.391 24.4519 228.69 21.4211 231.826 24.622C237.262 29.1143 233.201 20.4963 235.839 19.8973C244.483 22.4298 254.639 27.3797 255.909 26.7304C254.726 21.5601 258.724 20.676 265.205 20.4484C262.043 14.1233 258.77 5.328 262.371 0.227174C264.201 -0.331065 265.905 6.7224 267.395 7.34293C270.071 8.22701 273.562 15.8723 276.308 15.8315C280.953 13.4117 274.674 8.12878 276.102 4.17798C273.528 3.15734 275.953 0.0954387 277.429 0.0259582C279.868 -0.350194 282.173 3.45684 283.931 5.34719C284.487 6.37981 283.124 6.82066 284.238 8.25579C285.153 11.9982 285.053 14.4515 287.278 14.1688C287.688 14.061 288.141 14.3748 288.165 14.8037C289.082 18.836 285.438 21.9099 287.705 25.9229C289.983 34.5481 292.968 42.2964 294.78 51.0293C297.552 61.2717 295.247 61.5952 284.705 58.7129C280.608 59.7815 276.37 60.886 274.53 63.5478C274.223 63.9958 273.677 63.8808 273.291 63.6053C269.58 61.5856 269.436 61.5065 265.124 62.3259C260.174 62.278 267.848 68.3995 264.266 74.4467C256.683 85.7696 267.23 85.9109 261.281 91.7401C257.383 91.443 256.312 90.535 256.865 94.79C258.475 100.051 253.003 104.39 248.252 102.529C242.193 100.792 241.237 94.1264 239.215 89.1214C228.675 87.3772 234.183 84.3248 225.623 81.7924C218.43 77.2714 221.214 67.9778 218.157 68.5288C211.698 72.6282 206.465 68.4546 201.559 71.6123C191.829 80.1656 202.886 89.2076 191.827 88.1654C186.838 87.0346 181.797 89.2915 176.54 100.296C169.396 98.875 168.583 98.2018 163.341 104.881Z"
    fill="#ded6ca" />
  <path
    d="M242.792 142.334C246.151 143.009 251.242 144.1 248.41 148.412C242.698 158.245 257.069 161.839 263.482 155.906C269.549 154.934 276.42 149.478 282.611 147.502C284.204 143.304 288.682 133.649 293.929 136.399C294.531 136.287 295.273 135.367 295.441 134.55C294.921 124.916 302.911 127.858 306.807 125.129C306.048 115.55 317.018 117.989 304.728 100.595C302.698 97.8184 301.577 94.1096 297.422 94.4019C290.06 94.5528 294.528 85.5395 296.919 82.008C303.436 73.3445 295.726 77.0006 295.149 70.1053C294.538 67.4459 292.516 63.4687 292.808 62.0887C292.247 58.5835 290.048 59.8965 284.775 58.7009C284.18 58.6674 276.276 61.4754 275.975 61.4059C275.982 62.3666 275.625 63.1692 274.978 63.5837C271.219 64.487 271.569 59.9132 263.257 62.805C263.456 65.1267 265.543 67.6902 265.241 70.158C265.042 75.4577 259.127 81.0736 262.294 86.1601C263.887 88.1031 263.355 89.4712 262.893 90.118C261.803 91.6442 259.213 92.0156 257.222 91.4741C255.998 93.7334 257.898 97.8711 256.357 100.085C245.42 107.388 250.173 103.269 249.773 113.171C240.032 122.632 251.137 119.106 246.441 128.51C246.093 129.763 245.255 130.831 243.925 131.234C240.367 132.295 246.541 135.51 242.792 142.334ZM255.55 160.217C245.815 159.831 243.875 153.954 247.694 145.705C246.965 144.277 243.07 144.198 241.519 143.4C241.155 143.247 240.983 142.779 241.165 142.43C242.459 139.811 243.47 136.138 241.397 133.447C239.998 129.688 244.756 130.668 245.118 127.947C247.313 123.857 245.949 123.418 243.855 119.678C244.984 115.792 245.528 115.282 246.556 114.575C253.319 107.411 239.857 107.651 255.358 99.0211C256.168 96.539 253.889 90.7937 257.198 89.9551C258.832 90.5781 261.032 90.2498 261.724 89.2819C262.22 88.5895 261.69 87.6814 261.158 87.0417C257.332 81.3252 263.391 75.6062 263.808 70.0238C264.29 67.477 260.377 63.7131 262.38 61.5448C266.348 60.16 270.67 60.0402 274.202 62.3762C274.82 62.1965 274.094 60.3924 275.007 60.2031C275.297 60.1145 284.408 57.3113 284.502 57.2826C292.645 58.0828 294.166 58.9788 294.238 61.9521C293.948 63.3873 296.11 67.3213 296.56 69.8274C297.255 74.5185 298.534 72.7695 301.196 75.0264C301.531 80.4723 295.415 84.1955 295.381 89.3106C292.614 96.4815 300.825 88.3619 305.911 99.7806C309.716 105.313 314.086 111.705 310.545 119.324C308.35 120.675 307.389 122.903 308.276 125.292C305.619 130.261 296.04 125.124 296.881 134.559C295.015 141.881 289.782 131.238 283.847 148.319C274.698 152.166 265.265 158.928 255.55 160.217Z"
    fill="#ded6ca" />
  <path
    d="M330.701 312.508C337.719 323.033 333.109 314.971 340.666 318.261C341.823 316.085 342.077 313.962 346.603 311.653C358.632 310.177 353.738 312.693 361.102 302.874C361.33 302.606 361.718 302.541 362.02 302.719C364.663 304.285 366.215 304.585 367.461 304.827C370.137 305.347 371.402 305.85 375.76 313.184C376.934 314.116 381.07 313.924 382.831 314.214C386.297 314.849 398.586 323.055 394.115 314.027C392.541 307.194 394.209 308.747 397.446 306.562C397.769 299.784 395.131 293.581 405.546 291.518C408.483 287.483 402.589 282.128 409.192 278.923C407.856 277.797 406.686 276.965 408.994 276.143C393.476 267.94 397.381 279.136 389.527 272.233C387.591 272.346 387.759 271.098 388.435 268.549C389.273 265.896 393.178 264.976 390.531 262.049C390.198 262.386 389.98 262.796 389.537 263.064C385.212 263.316 381.012 258.711 377.385 256.361C371.874 256.021 377.174 261.78 373.154 261.905C369.351 259.111 365.458 259.456 361.337 259.823C356.567 261.236 351.191 257.896 346.703 258.694C345.412 258.924 343.809 259.279 342.053 258.68C337.39 255.64 326.324 255.57 327.208 263.527C323.66 269.157 329.764 263.591 328.114 272.253C326.115 281.386 335.567 276.074 331.528 285.011C328.174 292.076 337.963 288.815 330.466 297.519C335.998 305.56 329.213 300.579 330.701 312.508ZM335.411 320C331.473 318.879 325.749 308.119 331.389 301.921C329.566 298.14 326.973 298.26 331.815 293.334C332.143 292.596 331.954 291.745 331.358 291.326C326.245 287.718 332.273 284.016 330.739 280.216C324.053 278.609 327.491 272.435 326.738 268.177C323.669 267.794 324.443 265.048 325.852 262.993C325.538 259.624 327.265 257.786 328.792 256.833C332.663 254.415 339.197 255.192 342.724 257.403C346.44 258.1 348.052 255.922 352.135 257.683C359.071 260.501 366.462 255.62 373.365 260.302C372.049 254.882 377.116 253.22 380.888 257.168C383.408 258.91 386.652 262.005 389.137 261.464C389.467 261.052 390.157 260.197 391.226 260.736C395.879 265.35 389.362 266.826 389.417 270.798C391.063 270.041 392.369 272.947 393.107 273.34C397.299 272.073 399.286 269.255 410.237 275.188C411.593 275.775 411.351 277.473 409.755 277.437C414.272 281.136 405.28 278.98 407.585 286.268C409.552 299.681 397.053 285.581 398.687 307.343C395.316 310.287 394.122 307.764 395.505 313.644C400.225 325.223 386.595 316.147 380.765 315.486C371.673 316.318 372.576 306.173 367.188 306.238C360.372 303.919 361.452 304.046 358.1 309.873C357.159 313.212 351.195 312.206 347.125 312.997C341.916 314.787 343.404 320.644 339.652 319.437C336.334 317.698 337.39 319.569 335.411 320Z"
    fill="#ded6ca" />
  <path
    d="M410.529 275.494C414.744 276.203 427.835 272.351 427.66 268.86C426.855 265.384 417.214 263.572 417.3 259.265C418.076 255.378 419.691 250.249 415.841 249.482C415.47 249.384 415.242 249.015 415.319 248.641C417.401 238.744 411.265 230.581 407.563 221.839C403.26 222.461 395.229 217.732 391.01 218.504C387.778 217.607 390.169 212.418 386.321 213.384C384.124 213.496 381.446 213.635 379.891 211.999C377.231 214.579 375.78 213.23 373.221 211.838C371.977 213.213 371.644 217.703 368.53 215.99C366.354 212.782 365.691 215.554 362.744 214.49C361.143 215.588 360.793 216.783 360.393 218.158C360.817 220.756 352.98 227.205 349.066 222.538C348.579 223.144 346.804 225.909 345.5 224.934C346.253 232.467 337.826 231.559 339.439 246.43C337.52 254.204 337.644 257.23 345.239 257.077C351.275 257.257 359.279 260.352 365.231 257.434C366.639 257.022 371.623 260.285 373.405 260.362C372.203 246.418 385.737 264.305 389.831 260.829C390.924 259.89 392.577 261.886 392.738 262.679C393.641 265.12 389.472 268.388 389.424 270.489C389.472 270.597 389.736 270.964 391.147 271.143C392.038 271.488 392.579 273.465 393.095 273.338C396.971 272.094 400.304 269.198 410.529 275.494ZM411.298 276.984C402.966 273.137 397.98 271.984 395.129 274.167C393.365 275.041 392.158 275.37 390.593 272.516C387.162 272.138 387.541 269.27 389.654 266.831C390.766 265.098 392.407 263.318 390.569 262.154C387.131 265.805 378.992 255.937 375.435 256.485C373.343 262.348 377.648 263.941 365.731 258.812C359.344 261.766 351.6 258.85 345.182 258.515C337.163 258.658 335.562 255.05 337.997 246.382C337.664 238.71 338.603 232.654 344.156 228.13C343.989 223.698 343.996 223.42 344.607 223.116C345.098 222.874 345.51 223.211 345.707 223.374C346.801 224.431 347.906 220.736 348.807 221.125C350.381 220.83 351.188 223.298 352.686 222.795C361.78 221.151 356.445 215.739 362.89 213.022C365.851 213.978 367.03 211.383 369.522 214.905C371.539 214.363 371.417 208.046 375.027 211.196C378.317 213.877 378.446 209.387 380.6 210.566C382.608 213.832 390.394 209.454 390.332 215.166C390.526 216.206 390.665 216.795 391.295 217.076C395.778 216.752 404.547 220.696 408.665 220.748C412.357 229.709 418.637 237.817 416.847 248.294C421.375 250.096 419.5 255.661 418.742 259.241C419.262 263.005 429.315 264.785 429.097 268.913C429.136 273.846 415.522 277.31 411.298 276.984Z"
    fill="#ded6ca" />
  <path
    d="M279.101 259.72C280 259.66 281.097 260.843 281.612 262.53C282.374 274.402 293.366 268.333 300.448 271.534C301.321 279.891 301.086 283.159 309.392 288.825C315.363 296.496 319.244 308.962 329.185 311.799C329.079 310.654 329.079 310.654 329.082 310.582C329.901 308.759 328.514 306.264 329.371 304.388C330.385 303.409 331.616 302.493 331.446 302.1C330.5 299.192 326.573 298.097 331.813 293.315C332.105 290.473 326.377 286.676 330.459 284.079C333.037 279.16 328.432 280.413 326.599 277.274C325.483 273.812 328.89 268.762 324.946 267.046C323.787 264.694 327.282 261.014 326.322 258.563C327.129 255.965 333.854 255.877 337.115 255.283C337.12 252.959 337.395 250.419 337.664 247.958C338.071 244.566 338.334 241.135 338.145 238.099C339.175 233.732 342.582 229.843 337.321 226.666C335.706 224.069 331.245 229.1 328.801 227.958C327.476 227.548 326.765 225.32 325.663 224.551C320.248 232.174 315.231 233.008 309.893 232.05C295.367 229.438 298.175 241.128 289.492 228.262C289.487 228.262 289.147 228.346 288.622 229.608C285.91 231.46 287.968 232.632 286.787 234.846C283.229 237.366 279.216 240.318 276.641 243.437C275.474 244.245 273.03 243.409 272.146 244.226C272.215 248.093 269.494 253.021 267.764 256.78C268.313 263.587 275.258 261.418 279.101 259.72ZM329.99 313.462C318.626 311.202 314.644 298.08 308.317 289.783C293.268 280.942 306.184 270.647 292.061 271.814C286.579 271.742 280.91 271.666 280.189 262.753C279.511 261.145 279.089 261.16 279.003 261.184C276.219 262.549 272.311 263.838 269.441 262.281C266.355 260.748 265.562 256.044 267.929 252.997C269.942 250.007 270.236 246.058 271.041 243.303C272.093 242.067 274.151 242.532 275.716 242.302C278.344 239.201 282.225 236.322 285.719 233.842C285.867 231.726 284.859 230.802 287.372 228.878C290.153 222.639 292.827 232.45 295.623 233.087C306.678 225.773 315.459 237.4 323.976 224.038C326.384 221.276 327.79 225.416 329.29 226.604C331.928 226.975 335.661 222.373 338.205 225.528C342.947 228.703 341.763 231.985 340.512 235.462C338.507 241.748 339.921 250.335 338.064 256.521C335.711 257.235 329.256 257.206 327.781 258.848C328.217 260.333 327.508 262.017 326.875 263.515C326.197 265.187 325.366 266.701 327.383 266.797C329.87 268.913 327.076 273.896 327.946 276.735C331.844 279.596 334.995 280.801 330.462 286.331C330.299 287.153 331.037 288.245 331.748 289.302C336.641 294.719 327.773 295.816 331.674 299.573C335.318 302.905 329.764 303.89 330.644 307.359C331.032 308.787 330.502 310.194 330.617 311.689C330.716 313.277 330.941 313.05 329.99 313.462Z"
    fill="#ded6ca" />
  <path
    d="M104.915 168.684C106.642 168.684 108.295 169.443 109.886 170.368C111.296 167.531 113.217 168.772 110.944 164.745C107.075 159.769 109.013 159.776 108.17 155.08C105.567 152.037 99.8046 149.493 96.3648 150.844C92.9737 151.553 94.8775 156.402 92.5796 158.211C90.1449 159.124 89.0845 155.7 89.1793 160.677C90.682 162.938 93.5592 162.572 95.8085 165.327C101.112 170.481 98.5736 170.464 104.915 168.684ZM110.157 172.083C106.292 169.831 104.075 169.434 100.939 171.798C100.274 172.242 96.4899 168.106 93.4929 164.989C90.2752 164.139 85.3742 160.727 88.751 156.709C89.9479 155.597 91.7793 157.993 92.3381 156.299C91.4106 143.386 111.429 149.768 109.837 158.559C109.738 164.419 117.594 165.61 110.157 172.083ZM10.5433 252.58C10.7434 253.797 12.1052 253.641 12.5745 255.196C12.6443 259.135 13.5042 260.97 14.0828 260.963C16.8989 261.665 22.7635 253.431 25.5281 251.332C27.4388 242.199 31.9553 232.807 31.5365 223.283C33.3605 220.003 39.2172 214.117 42.6814 216.203C44.2044 213.604 48.8328 210.703 48.7535 215.552C49.691 213.094 50.7804 209.361 53.0716 213.913C59.5634 206.383 60.4552 221.307 65.7196 214.172C63.3961 212.504 62.5772 211.455 62.8261 210.516C63.4725 208.357 69.508 209.505 71.0984 208.156C71.8864 206.682 73.6222 205.233 75.4565 203.702C79.4744 200.348 81.9534 197.954 79.8886 195.355C79.4947 192.736 82.8818 192.321 84.3009 194.097C86.4456 195.989 86.8472 194.923 88.4325 192.398C90.4611 191.401 89.0433 189.796 89.2725 188.054C90.8351 183.071 93.2279 188.395 94.7177 179.333C96.1485 177.51 98.4868 179.602 98.6852 181.727C99.3225 183.802 101.484 184.504 102.95 184.482C101.493 183.241 98.8757 183.018 102.216 180.85C102.49 180.622 102.994 180.208 103.442 180.67C105.919 182.877 106.954 183.227 107.265 183.279C105.386 174.228 93.7936 177.23 91.9444 169.549C89.458 163.128 71.81 154.797 68.3338 161.623C65.6207 166.499 63.1819 160.775 60.5247 163.161C55.0697 167.193 57.3868 151.1 49.0015 160.533C46.5344 164.754 37.1287 163.044 35.0428 165.047C32.8499 166.362 34.3751 174.273 32.1299 176.576C26.1292 176.573 29.1483 171.379 26.9726 170.068C23.5889 176.794 18.3419 177.249 20.33 186.904C20.5265 187.803 18.9397 188.227 18.5944 187.994C14.9227 184.913 15.6976 173.011 8.04179 174.084C7.42581 176.875 5.27647 177.601 2.85496 176.53C6.11095 179.731 16.6334 197.108 13.0336 198.285C9.94196 196.773 10.2364 199.787 10.5196 202.104C9.00206 204.248 7.25211 203.036 6.24608 201.131C5.72762 200.443 5.10014 198.91 4.42546 199.88C3.99444 201.567 7.59568 204.631 6.43224 206.328C-4.49846 203.208 7.81658 215.918 11.7978 213.041C15.4671 213.355 15.6262 221.041 18.0532 223.075C24.6826 223.861 30.6915 226.316 25.0796 232.666C24.1521 239.293 23.4751 239.304 19.6881 237.838C18.5024 238.581 14.4891 247.326 14.1779 248.965C13.5882 251.25 12.9145 252.942 10.5433 252.58ZM14.4656 262.468C11.8694 262.214 11.3625 260.022 11.1895 255.611C10.2474 254.07 8.60027 254.262 9.24692 251.555C10.7748 249.947 11.9526 252.971 12.7935 248.579C13.456 246.269 16.9537 237.778 19.1694 236.497C20.5126 235.972 21.3976 237.021 22.3754 237.325C22.4456 237.302 23.0817 236.959 23.6816 232.27C24.9655 230.399 26.3271 228.569 25.766 227.526C22.9509 223.276 16.0883 227.505 14.4788 219.167C12.4428 210.935 8.526 218.022 2.72558 210.803C-0.331315 207.746 -0.498549 203.081 4.87468 204.651C3.53371 202.461 1.25499 198.294 5.25251 198.069C6.73364 198.443 7.53842 201.15 8.68796 201.819C9.27543 199.725 8.23514 196.052 12.2861 196.5C10.6859 191.425 7.70876 185.481 3.97958 179.949C2.90527 178.564 -0.442483 175.888 0.0489111 174.031C2.75362 173.849 6.05394 178.013 6.73964 173.31C14.8411 169.699 16.855 181.394 18.7583 186.312C17.305 176.549 22.544 175.205 26.4055 168.676C31.1627 167.919 27.3363 174.925 31.5219 175.109C32.4114 156.247 37.3419 167.021 48.0211 159.483C54.419 153.142 55.3321 156.407 59.1499 162.507C62.2207 157.883 65.0574 164.958 67.144 160.816C67.7664 159.898 68.6191 158.643 70.268 157.409C97.3742 159.955 89.3784 173.027 100.864 174.736C107.441 176.041 113.779 189.652 102.532 182.45C109.075 186.892 97.9015 187.089 97.2798 182.024C95.6841 176.168 95.5253 187.331 91.7015 186.986C90.4841 187.007 90.6509 188.84 90.8466 189.751C91.0527 191.035 91.2657 192.36 89.3413 193.531C88.0018 196.83 85.5946 197.286 83.4161 195.23C82.538 194.607 81.9265 193.871 81.3115 194.868C84.9695 200.57 74.3597 204.952 72.136 209.167C70.1906 211.615 59.5685 208.759 67.1878 213.443C68.0599 215.679 63.278 217.969 62.6381 217.742C59.3164 217.643 58.7115 211.424 54.9169 213.853C53.1284 216.738 52.2651 215.686 51.0909 213.436C50.2519 217.013 47.6126 219.972 47.0124 214.28C46.0181 213.829 43.174 219.059 41.7062 217.31C38.7013 216.858 34.5972 221.012 32.9877 223.65C33.2857 233.346 28.769 242.702 26.8729 251.926C23.8067 254.672 17.9461 262.53 14.4656 262.468Z"
    fill="#ded6ca" />
  <path
    d="M297.478 166.657C301.864 166.82 301.987 171.223 304.337 173.741C312.95 185.44 322.874 163.789 326.405 172.615C329.573 168.006 331.463 172.385 335.1 169.561C338.493 170.179 341.806 173.157 343.117 172.201C349.243 160.066 345.318 170.715 355.769 166.769C359.969 164.191 358.249 158.463 360.849 156.417C362.775 155.422 368.108 160.114 371.201 160.248C371.738 158.528 369.843 154.668 371.752 153.364C383.396 146.905 390.464 146.074 394.491 145.63C402.796 144.78 399.858 139.583 401.957 129.501C394.46 127.879 367.198 122.712 364.792 122.103C360.947 115.754 355.618 121.494 352.276 119.642C350.4 101.141 346.591 114.175 335.368 111.782C331.489 113.612 333.749 118.574 328.693 119.671C321.226 118.591 324.589 111.988 318.07 116.588C315.667 118.655 310.099 118.538 308.515 121.181C307.114 123.591 308.846 124.662 307.88 126.55C304.886 128.603 297.806 126.102 297.262 132.635C294.147 144.023 292.398 131.294 286.701 142.664C280.675 148.196 288.376 153.997 282.963 158.161C282.003 159.34 282.132 159.682 282.134 159.685C286.864 161.247 295.736 159.122 297.478 166.657ZM310.216 178.569C302.265 179.134 302.511 168.26 296.934 168.106C296.56 168.133 296.232 167.869 296.174 167.5C295.36 159.663 284.343 163.633 280.814 160.257C280.352 159.189 281.279 157.763 282.175 156.951C286.406 153.352 279.118 148.249 285.469 141.926C287.544 138.503 290.062 134.099 293.886 136.507C297.463 132.422 294.425 127.163 302.703 126.145C309.828 126.207 304.821 124.935 307.229 120.541C308.465 118.083 312.921 117.165 315.708 116.396C317.742 115.22 320.152 112.963 322.299 113.624C324.956 114.657 324.194 117.235 328.588 118.214C332.666 116.945 330.519 111.159 335.505 110.33C346.605 112.443 351.323 99.5698 353.601 118.667C357.923 117.596 362.43 116.171 365.791 121.01C366.479 120.364 396.336 127.269 402.839 128.189C403.229 128.239 403.507 128.593 403.462 128.984C402.446 137.88 401.923 141.725 400.848 143.958C396.219 149.852 386.964 145.259 372.591 154.538C372.102 154.974 372.344 156.417 372.536 157.581C373.115 160.047 372.751 162.43 369.84 161.58C367.027 160.904 360.904 155.387 360.935 159.342C360.393 160.358 359.811 167.246 356.177 168.149C353.505 168.938 349.547 170.102 347.276 167.754C343.534 173.693 344.969 176.161 335.601 170.984C332.1 173.811 330.081 169.642 327.694 173.451C325.909 175.291 324.939 172.654 323.988 171.662C320.183 173.284 315.955 178.837 310.216 178.569Z"
    fill="#ded6ca" />
  <path
    d="M263.276 252.971C264.151 253.114 266.084 253.462 267.1 254.688C268.65 251.341 270.907 247.822 270.567 244.159C270.534 243.78 270.797 243.44 271.171 243.38C277.371 242.335 279.746 237.024 285.251 234.518C286.248 229.941 287.197 227.248 288.979 226.994C290.532 226.769 292.161 228.466 294.557 232.831C304.632 233.54 303.419 225.181 301.987 216.656C296.649 192.439 322.354 194.897 300.427 169.513C298.489 167.258 295.29 169.577 294.334 163.669C291.703 160.236 282.724 163.782 280.534 159.788C282.06 154.299 284.966 159.179 282.786 149.093C277.707 151.678 270.428 153.42 266.674 157.44C264.316 157.677 264.417 156.582 261.736 159.215C257.414 163.056 247.643 155.667 244.359 158.583C245.135 163.082 244.792 163.648 242.485 164.982C239.174 166.896 237.509 171.123 233.33 172.769C228.632 175.548 226.159 177.532 228.637 182.098C229.583 186.952 227.115 185.872 226.291 189.166C228.016 192.468 222.882 200.053 226.584 202.07C231.323 197.573 236.57 201.756 240.803 205.132C243.316 207.245 248.206 209.325 244.802 212.837C245.106 225.356 245.614 218.477 238.762 220.595C236.895 222.409 240.561 227.859 235.63 226.151C233.033 227.469 237.593 229.465 236.122 231.214C235.925 232.237 233.515 231.904 232.41 231.726C229.84 237.936 227.904 233.305 230.074 240.934C245.789 230.457 237.914 257.108 246.807 248.819C247.835 245.591 242.2 241.111 245.892 237.915C249.804 236.521 249.809 242.108 251.422 243.756C257.081 243.013 258.978 250.999 263.276 252.971ZM267.028 257.398C265.423 256.464 267.1 254.813 262.792 254.329C258.549 252.697 256.87 245.891 252.39 245.112C248.678 246.461 249.423 239.06 246.69 239.142C244.263 243.749 253.925 250.17 243.17 252.221C238.328 250.33 241.934 238.087 234.492 240.27C232.698 240.965 230.57 242.838 229.336 242.376C228.014 241.013 228.824 239.621 227.568 237.261C227.192 235.72 228.438 234.668 229.348 233.995C231.871 231.233 230.002 229.714 234.89 230.476C235.003 229.424 232.899 228.513 233.326 227.205C233.419 225.523 235.326 224.115 236.939 224.812C235.69 220.197 238.891 217.351 243.513 218.987C242.272 207.717 248.233 212.42 239.907 206.256C235.64 202.854 231.227 199.336 227.321 203.362C223.076 204.004 223.486 198.9 224.468 195.419C225.817 191.993 223.792 187.949 226.442 186.032C227.101 185.431 227.623 184.954 227.235 182.443C222.403 172.742 236.665 172.258 239.078 165.495C242.519 162.874 244.038 164.038 242.947 158.214C244.153 155.267 247.55 156.323 251.146 157.442C262.27 161.597 259.731 155.533 266.005 156.067C270.387 151.996 277.91 149.771 283.39 147.399C285.129 149.39 284.796 153.709 284.846 156.474C280.532 160.073 281.979 160.315 287.468 160.492C294.61 160.492 294.327 161.352 297.327 166.549C299.035 167.809 300.439 166.12 301.594 168.669C316.127 186.341 311.153 189.485 302.598 205.791C301.409 213.06 307.334 226.201 302.332 231.877C300.638 233.734 297.933 234.508 294.066 234.242C291.073 230.54 290.12 228.039 289.183 228.418C287.99 228.588 286.929 233.542 286.581 235.169C281.257 238.14 278.315 243.066 272.038 244.683C271.837 249.068 269.479 254.099 267.028 257.398Z"
    fill="#ded6ca" />
  <path
    d="M176.505 149.457C190.061 154.699 185.521 137.715 195.957 141.457C197.136 144.042 194.862 144.895 199.63 143.182C203.727 143.009 203.418 137.001 208.025 138.44C218.943 141.088 221.028 134.243 222.07 149.67C224.36 147.54 227.175 141.529 230.736 143.033C234.42 140.096 239.042 145.523 241.922 140.872C243.249 138.457 242.209 134.691 241.117 132.149C241.263 130.721 242.487 130.242 243.383 129.892C247.049 128.002 246.302 123.236 245.152 121.954C240.659 115.603 252.21 114.211 247.564 107.603C246.613 105.543 248.525 104.156 249.407 103.257C246.992 101.642 241.843 98.6019 240.846 95.2812C240.54 91.5484 240.008 87.4898 235.64 88.5536C233.342 87.3365 230.716 85.7049 230.175 83.6444C224.902 82.4225 218.656 75.532 219.681 70.273C219.832 68.6941 220.364 68.3827 218.093 68.5504C207.929 73.4931 197.617 65.177 196.949 83.1509C200.469 90.6739 190.015 86.7231 186.721 88.659C180.566 88.8123 180.171 96.7762 176.686 100.301C174.341 100.447 170.564 99.1481 168.217 99.1649C161.399 105.869 162.818 108.844 165.374 114.206C166.327 116.906 169.915 123.332 169.839 126.236C168.853 128.325 165.236 128.246 167.348 131.349C168.73 133.788 166.549 133.79 164.984 135.604C164.596 137.185 161.824 137.427 161.592 138.704C163.265 140.724 165.712 138.766 167.245 140.348C167.835 148.712 161.745 145.968 176.505 149.457ZM181.019 151.733C177.037 151.036 166.165 149.751 164.719 146.582C165.661 143.043 166.462 141.244 166.074 141.184C164.302 141.018 161.598 141.699 160.166 139.056C159.869 136.473 162.867 136.545 163.656 135.038C165.743 132.432 167.015 133.421 165.313 130.254C165.102 126.945 167.304 127.12 168.457 125.838C168.107 123.574 164.984 117.045 164.077 114.824C161.301 109.426 159.735 104.553 167.854 97.7442C170.092 97.5597 173.886 98.8439 176.235 98.8726C179.128 91.8479 182.967 85.3862 191.944 86.6153C193.657 86.704 195.6 86.807 196.053 86.1361C193.82 74.4179 200.552 68.1647 207.776 69.1781C210.95 70.3401 222.705 63.2052 221.097 70.5198C220.246 75.0552 226.382 81.7229 230.891 82.3003C232.233 83.7283 232.104 85.3479 236.071 87.152C243.831 85.6354 239.912 96.1245 245.451 98.5923C247.107 100.696 253.142 102.289 249.903 104.781C249.181 105.428 248.702 105.931 248.769 106.796C254.098 114.312 242.725 115.965 246.409 121.262C248.561 123.989 247.775 129.981 242.586 132.111C244.692 136.112 244.984 143.616 239.128 144.181C234.25 144.646 235.027 142.379 230.448 144.502C227.916 142.272 224.188 151.694 221.627 151.119C219.533 150.499 220.601 141.04 218.807 140.822C215.539 139.38 211.767 141.886 207.481 139.77C205.299 138.539 204.482 142.751 202.759 143.723C200.083 144.171 194.268 147.873 194.853 142.537C188.472 140.393 189.498 152.495 181.019 151.733Z"
    fill="#ded6ca" />
</svg>
  