<svg width="312" height="239" viewBox="0 0 312 239" fill="none" xmlns="http://www.w3.org/2000/svg">
  <g opacity="0.5">
    <path
      d="M235.306 2.22357C244.488 -2.04191 256.132 -0.0439176 263.297 7.13028C266.512 10.1319 268.492 14.1372 270.137 18.1425C283.175 47.7593 296.315 77.3203 309.325 106.946C312.791 114.948 311.695 124.724 306.435 131.694C303.796 135.309 300.134 138.124 296.045 139.899C252.025 159.229 208.031 178.614 164.001 197.915C154.587 194.709 145.146 191.596 135.723 188.399C185.58 166.44 235.464 144.546 285.34 122.614C287.738 121.666 289.763 119.622 290.237 117.029C290.879 114 289.159 111.258 288.044 108.591C276.391 82.2363 264.793 55.8721 253.13 29.5264C251.746 26.4504 250.64 22.5566 247.071 21.3764C243.652 19.9546 240.306 22.0455 237.249 23.3558C174.948 50.7609 112.639 78.1288 50.3386 105.525C50.5895 98.0437 51.0356 90.5721 51.3237 83.0912C112.648 56.1322 173.982 29.1733 235.306 2.22357Z"
      fill="white" />
    <path
      d="M14.5794 99.2703C23.8909 95.1163 33.2397 91.0367 42.5791 86.9571C40.1537 95.3394 37.7654 103.74 35.3213 112.123C31.8271 113.73 28.2215 115.096 24.7923 116.834C21.2145 118.637 20.0065 123.423 21.8372 126.889C32.2825 150.484 42.6721 174.098 53.0895 197.702C45.4785 197.098 37.8583 196.568 30.2566 195.908C21.3168 175.668 12.3862 155.437 3.45563 135.206C1.45764 130.997 -0.187233 126.471 0.017213 121.741C-0.019959 112.253 5.92757 103.118 14.5794 99.2703Z"
      fill="white" />
    <path
      d="M104.833 201.986C110.334 199.514 115.854 197.107 121.375 194.7C132.833 197.005 144.3 199.244 155.768 201.53C145.955 205.907 136.085 210.182 126.263 214.531C119.126 210.34 111.951 206.205 104.833 201.986Z"
      fill="white" />
    <path
      d="M2.27539 196.642C14.8395 199.737 27.3944 202.869 39.9492 206C29.6247 211.037 19.2723 216.018 8.93848 221.046C6.70816 212.914 4.49642 204.774 2.27539 196.642Z"
      fill="white" />
    <path
      d="M39.7263 217.301C45.9526 214.801 52.1696 212.264 58.4052 209.783C59.2973 212.004 60.3847 214.16 61.7693 216.139C59.0279 222.709 56.2864 229.279 53.4985 235.831C46.2872 232.039 42.477 224.605 39.7263 217.301Z"
      fill="white" />
    <path
      d="M76.7496 214.299C80.3274 212.729 83.9052 211.149 87.5016 209.587C92.5384 214.699 97.603 219.791 102.64 224.912C93.5513 228.88 84.4906 232.931 75.3742 236.862C70.8857 238.86 65.8768 239.111 61.063 238.526C66.2299 230.413 71.5176 222.375 76.7496 214.299Z"
      fill="white" />
    <path
      d="M108.847 218.499C116.83 220.479 124.822 222.402 132.805 224.4C128.772 229.093 124.766 233.805 120.715 238.479C116.756 231.816 112.76 225.181 108.847 218.499Z"
      fill="white" />
  </g>
  <path
    d="M206.833 60.9088C212.892 57.043 220.326 54.6175 227.519 56.1973C233.931 57.647 239.237 62.3957 241.988 68.2968C237.871 69.9881 233.736 71.633 229.601 73.2778C228.29 71.2891 226.553 69.2261 223.969 69.1517C219.462 68.9008 214.918 71.0289 211.767 74.1792C208.097 77.9429 212.325 85.3494 217.455 84.067C223.058 82.5801 228.318 79.5785 234.275 79.4948C241.152 78.9001 248.326 82.227 251.755 88.3232C256.179 94.819 255.119 103.908 250.287 109.883C242.908 119.306 229.173 124.027 217.845 119.427C213.719 117.81 210.42 114.594 208.431 110.673C212.464 108.889 216.498 107.104 220.549 105.357C226.367 110.431 235.706 107.011 239.804 101.333C242.211 98.5269 240.734 93.4343 236.914 92.9418C232.528 92.4028 228.476 94.5495 224.48 95.9992C218.635 98.1738 211.674 98.2295 206.331 94.7168C200.272 90.758 196.276 83.4351 197.01 76.1401C197.391 69.7837 201.61 64.2543 206.833 60.9088Z"
    fill="white" />
  <path
    d="M163.137 80.5357C178.508 77.6548 195.096 87.0315 200.43 101.752C206.842 117.54 198.934 137.372 183.321 144.258C168.146 151.794 148.073 145.354 139.83 130.634C132.033 117.782 134.654 100.014 145.387 89.6056C150.192 84.8662 156.511 81.7438 163.137 80.5357ZM164.903 94.4008C157.84 95.7576 151.865 101.343 149.997 108.285C147.813 115.626 150.406 124.111 156.4 128.906C161.845 133.515 169.893 134.844 176.482 132.037C182.68 129.584 187.262 123.692 188.377 117.15C189.706 110.431 186.992 103.173 181.779 98.7871C177.207 94.8562 170.804 93.1927 164.903 94.4008Z"
    fill="white" />
  <path
    d="M92.5382 111.137C98.8946 107.095 106.896 104.558 114.349 106.826C120.269 108.498 124.971 113.108 127.591 118.572C123.475 120.282 119.33 121.917 115.185 123.572C113.791 121.248 111.552 119.167 108.643 119.39C104.303 119.631 99.8239 121.536 97.0174 124.938C93.8114 129.045 98.6066 136.071 103.671 134.221C110.39 131.935 117.285 128.673 124.59 130.03C132.247 130.959 138.399 137.502 139.905 144.899C141.187 151.618 138.167 158.448 133.362 163.067C126.039 169.888 115.176 173.456 105.39 170.418C100.493 169.024 96.2926 165.548 94.0344 160.976C98.0676 159.164 102.11 157.379 106.171 155.642C112.007 160.744 121.43 157.268 125.463 151.506C127.805 148.7 126.281 143.719 122.527 143.226C118.363 142.715 114.442 144.629 110.66 146.098C104.508 148.533 97.0081 148.598 91.423 144.695C85.6614 140.606 81.8513 133.478 82.5947 126.332C83.0593 119.975 87.2691 114.446 92.5382 111.137Z"
    fill="white" />
  <path
    d="M59.0093 125.151C64.743 123.163 71.0623 128.934 69.5196 134.835C68.5346 140.884 60.2173 143.524 55.8589 139.277C51.0451 135.336 52.9781 126.675 59.0093 125.151Z"
    fill="white" />
  <path
    d="M62.2432 151.265C66.3414 149.471 70.4303 147.659 74.5378 145.875C79.9928 158.253 85.4478 170.622 90.9121 182.991C86.8231 184.803 82.7156 186.597 78.6267 188.409C73.1531 176.03 67.6982 163.652 62.2432 151.265Z"
    fill="white" />
</svg>
  