<svg width="172" height="196" viewBox="0 0 172 196" fill="none" xmlns="http://www.w3.org/2000/svg">
  <path fill-rule="evenodd" clip-rule="evenodd"
    d="M116.643 112.825C117.401 109.694 114.413 106.96 111.384 108.012L84.6033 117.316C81.6105 118.356 78.346 116.76 77.3119 113.75L74.8829 106.682C73.8488 103.673 75.4367 100.391 78.4295 99.3509L105.21 90.0468C122.376 84.083 139.305 99.5753 135.011 117.319L126.008 154.524C125.26 157.617 122.159 159.515 119.082 158.762L111.855 156.994C108.778 156.242 106.891 153.124 107.64 150.03L116.643 112.825Z"
    fill="white" />
  <path fill-rule="evenodd" clip-rule="evenodd"
    d="M57.5654 46.7624C60.5856 45.8059 63.8051 47.4923 64.7563 50.529L90.4347 132.504C91.386 135.54 89.7088 138.777 86.6886 139.734L79.5946 141.98C76.5744 142.937 73.3549 141.25 72.4037 138.214L46.7252 56.2392C45.774 53.2025 47.4512 49.9654 50.4714 49.009L57.5654 46.7624Z"
    fill="white" />
  <path fill-rule="evenodd" clip-rule="evenodd"
    d="M118.932 39.8362C121.493 41.7181 122.048 45.3336 120.169 47.904L51.3811 142.038C49.5097 144.599 45.9301 145.154 43.3782 143.28L37.3731 138.867C34.8117 136.986 34.2571 133.37 36.1354 130.8L104.924 36.6652C106.795 34.1043 110.375 33.5491 112.927 35.4241L118.932 39.8362Z"
    fill="white" />
  <path opacity="0.5" fill-rule="evenodd" clip-rule="evenodd"
    d="M85.4551 3.06536e-06H86.5449C104.074 -0.000146288 117.971 -0.00026536 128.896 1.409C140.133 2.85853 149.309 5.91046 156.719 12.824C157.593 13.6388 158.435 14.4861 159.246 15.3643C166.122 22.8153 169.157 32.0409 170.599 43.3398C172 54.3249 172 68.2977 172 85.9224V110.078C172 127.702 172 141.675 170.599 152.66C169.157 163.959 166.122 173.185 159.246 180.636C158.435 181.514 157.593 182.361 156.719 183.176C149.309 190.09 140.133 193.141 128.896 194.591C117.971 196 104.074 196 86.5452 196H85.4548C67.9261 196 54.0292 196 43.1039 194.591C31.8665 193.141 22.6911 190.09 15.2806 183.176C14.4073 182.361 13.5645 181.514 12.7542 180.636C5.87829 173.185 2.84297 163.959 1.40134 152.66C-0.000263929 141.675 -0.000145491 127.702 3.04868e-06 110.077V85.9227C-0.000145491 68.2979 -0.000263929 54.3249 1.40134 43.3398C2.84297 32.0409 5.87829 22.8153 12.7542 15.3643C13.5645 14.4861 14.4073 13.6388 15.2806 12.824C22.6911 5.91046 31.8665 2.85853 43.1039 1.409C54.0293 -0.00026536 67.9262 -0.000146288 85.4551 3.06536e-06ZM45.0494 16.6566C35.409 17.9001 29.8157 20.2342 25.6797 24.0929C25.0858 24.6469 24.5128 25.2231 23.9617 25.8202C20.1241 29.9788 17.8027 35.6028 16.5659 45.2959C15.3037 55.1891 15.2889 68.1749 15.2889 86.4706V109.529C15.2889 127.825 15.3037 140.811 16.5659 150.704C17.8027 160.397 20.1241 166.021 23.9617 170.18C24.5128 170.777 25.0858 171.353 25.6797 171.907C29.8157 175.766 35.409 178.1 45.0494 179.343C54.8888 180.613 67.8038 180.627 86 180.627C104.196 180.627 117.111 180.613 126.951 179.343C136.591 178.1 142.184 175.766 146.32 171.907C146.914 171.353 147.487 170.777 148.038 170.18C151.876 166.021 154.197 160.397 155.434 150.704C156.696 140.811 156.711 127.825 156.711 109.529V86.4706C156.711 68.1749 156.696 55.1891 155.434 45.2959C154.197 35.6028 151.876 29.9788 148.038 25.8202C147.487 25.2231 146.914 24.6469 146.32 24.0929C142.184 20.2342 136.591 17.9001 126.951 16.6566C117.111 15.3874 104.196 15.3726 86 15.3726C67.8038 15.3726 54.8888 15.3874 45.0494 16.6566Z"
    fill="white" />
</svg>
  