<svg width="198" height="224" viewBox="0 0 198 224" fill="none" xmlns="http://www.w3.org/2000/svg">
  <path
    d="M102.629 35.9512C103.921 33.5884 107.533 34.6528 107.366 37.3397L102.652 113.271C123.667 112.553 137.729 110.9 153.001 106.107C154.97 105.489 156.818 107.294 156.111 109.231C153.866 115.381 149.187 127.117 141.473 141.673C132.581 158.452 106.872 203.266 95.6608 222.742C94.3359 225.044 90.8266 223.962 90.9911 221.313L95.7477 144.685C76.4186 144.129 59.9787 142.58 42.7459 137.487C41.1054 137.003 40.4561 135.053 41.4603 133.671C46.1533 127.209 57.811 111.214 63.7277 103.603C69.4409 96.2537 92.0921 55.2144 102.629 35.9512Z"
    fill="white" />
  <g opacity="0.5">
    <path
      d="M99 0C153.676 0 198 17.2486 198 38.5259V63.6514C198 83.0182 161.279 99.0473 113.453 101.77L115.646 66.441C154.008 63.8202 182.898 52.3181 182.898 38.5259C182.898 22.7992 154.373 8.37519 99 8.37519C43.6271 8.37519 15.1017 22.7992 15.1017 38.5259C15.1017 51.3714 40.1618 62.2303 74.5938 65.7779C73.928 66.9597 73.2643 68.1347 72.6051 69.2987C64.7058 83.2476 58.0601 94.5003 55.7739 97.4412C55.5818 97.6884 55.3838 97.944 55.1805 98.2075C22.4849 91.9169 0 78.806 0 63.6514V38.5259C0 17.2486 44.3238 0 99 0Z"
      fill="white" />
    <path
      d="M46.5248 109.726C18.5821 102.916 0 90.8284 0 77.0518V102.177C0 113.358 12.2379 123.425 31.7852 130.463C32.1642 129.553 32.6701 128.651 33.3092 127.771C36.091 123.941 41.407 116.641 46.5248 109.726Z"
      fill="white" />
    <path
      d="M85.0477 153.724C36.9781 151.085 0 135.012 0 115.578V140.703C0 159.93 36.1933 175.868 83.5129 178.76L85.0477 153.724Z"
      fill="white" />
    <path
      d="M133.48 176.828C139.68 165.859 145.347 155.718 149.063 148.822C178.343 142.13 198 129.747 198 115.578V140.703C198 157.262 171.156 171.38 133.48 176.828Z"
      fill="white" />
    <path
      d="M156.834 133.449C161.082 124.417 163.925 117.179 165.57 112.671C166.532 110.035 166.604 107.571 166.026 105.405C185.683 98.3646 198 88.2679 198 77.0518V102.177C198 115.053 181.769 126.454 156.834 133.449Z"
      fill="white" />
  </g>
</svg>
  