<svg width="103" height="160" viewBox="0 0 103 160" fill="none" xmlns="http://www.w3.org/2000/svg">
  <path
    d="M32.005 38.4V44.8H38.3755V51.2H38.39V57.6H44.79V51.2H44.7755V44.8H38.405V25.6H32.005V38.4Z"
    fill="currentColor" />
  <path d="M25.6049 19.2V25.6H32.0049V6.40001H25.6049V19.2Z" fill="currentColor" />
  <path d="M17.0716 6.39999H25.6049V-6.25849e-06H12.8049V6.39999H17.0716Z" fill="currentColor" />
  <path d="M49.0419 44.8H51.1753V6.39999H44.7753V44.8H49.0419Z" fill="currentColor" />
  <path d="M63.9753 19.2V44.8H64.0048V57.6H76.8048V51.2H70.4048V44.8H70.3753V6.4H63.9753V19.2Z"
    fill="currentColor" />
  <path d="M55.4419 6.39999H63.9753V-6.25849e-06H51.1753V6.39999H55.4419Z" fill="currentColor" />
  <path d="M44.7899 70.4001H51.1899V57.6001H44.7899V70.4001Z" fill="currentColor" />
  <path
    d="M95.9654 64V57.6H76.8048V89.6H64.0048V96H83.2048V64H95.9654V96.0195H83.1654V102.42H95.9654V121.639H102.365V64H95.9654Z"
    fill="currentColor" />
  <path d="M89.5654 128.039V140.839H95.9654V121.639H89.5654V128.039Z" fill="currentColor" />
  <path d="M89.5654 160V140.839H83.1654V153.6H31.9654V140.8H25.5654V160H89.5654Z"
    fill="currentColor" />
  <path
    d="M38.4048 76.8001H44.7753V70.4001H38.4048V76.8001ZM38.4048 70.4001V64.0001H25.6048V57.6001H19.2123V51.2001H19.2048V32.0001H12.8123V25.6001H12.8048V6.40014H6.40483V25.6001H6.4123V32.0001H12.8048V51.2001H12.8123V57.6001H19.2048V64.0001H6.40483V70.4001H38.4048Z"
    fill="currentColor" />
  <path d="M44.7753 83.2001H51.1753V76.8001H44.7753V83.2001Z" fill="currentColor" />
  <path d="M64.0049 76.8V57.6H57.6049V76.8L57.5754 83.2H51.1754V96H57.5754V89.6H64.0049V76.8Z"
    fill="currentColor" />
  <path d="M38.3753 96H31.9753V102.4H51.1753V96H38.3753Z" fill="currentColor" />
  <path d="M25.5753 96.0001H31.9753V89.6001H25.5753V96.0001Z" fill="currentColor" />
  <path d="M19.2 121.6H12.8V128H19.1556V140.8H25.5556V128H19.2V121.6Z" fill="currentColor" />
  <path d="M6.39986 121.6H12.7999V115.2H6.39986V121.6Z" fill="currentColor" />
  <path d="M6.4 102.4V70.4H0V115.2H6.4V102.4Z" fill="currentColor" />
</svg>
  