<svg width="61" height="73" viewBox="0 0 61 73" fill="none" xmlns="http://www.w3.org/2000/svg">
  <g filter="url(#filter0_d_5_124)">
    <mask id="path-1-outside-1_5_124" maskUnits="userSpaceOnUse" x="-5.92647" y="-6.28593"
      width="73.9469" height="81.7082" fill="black">
      <rect fill="white" x="-5.92647" y="-6.28593" width="73.9469" height="81.7082" />
      <path fill-rule="evenodd" clip-rule="evenodd"
        d="M44.0451 49.9238C48.0336 50.248 51.5721 47.552 52.2056 43.6009C55.0749 25.7038 49.6568 10.0643 38.8544 7.15534C28.0521 4.24634 15.513 15.0501 9.00696 31.9678C7.57061 35.7027 9.27677 39.8111 12.8887 41.5335C14.7801 42.4355 17.0507 43.4418 19.5971 44.4255L17.4492 49.0857C15.1156 54.1487 17.8994 60.0937 23.2825 61.5433L24.2389 61.8009C29.622 63.2505 35.0148 59.5074 35.5393 53.9572L36.0144 48.929C39.0134 49.4316 41.7575 49.7378 44.0451 49.9238Z" />
    </mask>
    <path
      d="M52.2056 43.6009L46.2812 42.6511L46.2812 42.6511L52.2056 43.6009ZM44.0451 49.9238L43.5589 55.904L43.5589 55.904L44.0451 49.9238ZM9.00696 31.9678L3.4068 29.8141L9.00696 31.9678ZM12.8887 41.5335L10.306 46.9493L10.3061 46.9493L12.8887 41.5335ZM19.5971 44.4255L25.0462 46.937L27.7218 41.1318L21.7591 38.8285L19.5971 44.4255ZM17.4492 49.0857L12.0001 46.5741L17.4492 49.0857ZM35.5393 53.9572L29.5659 53.3927L29.5659 53.3927L35.5393 53.9572ZM36.0144 48.929L37.006 43.0115L30.6476 41.9461L30.041 48.3646L36.0144 48.929ZM46.2812 42.6511C46.1585 43.4169 45.4912 44.0215 44.5314 43.9435L43.5589 55.904C50.576 56.4745 56.9858 51.6872 58.1299 44.5507L46.2812 42.6511ZM37.2943 12.9489C40.1354 13.714 43.0568 16.3655 45.0122 21.7917C46.9458 27.1574 47.5905 34.4845 46.2812 42.6511L58.1299 44.5507C59.69 34.8202 59.0603 25.3791 56.3016 17.7235C53.5647 10.1285 48.3759 3.50565 40.4146 1.36174L37.2943 12.9489ZM14.6071 34.1214C17.5759 26.4018 21.8129 20.3893 26.1795 16.7202C30.5953 13.0097 34.4532 12.1839 37.2943 12.9489L40.4146 1.36174C32.4533 -0.78218 24.6405 2.33939 18.4597 7.53293C12.2296 12.7679 6.94408 20.6161 3.4068 29.8141L14.6071 34.1214ZM15.4713 36.1178C14.6021 35.7033 14.3287 34.8453 14.6071 34.1214L3.4068 29.8141C0.812504 36.5601 3.95144 43.9189 10.306 46.9493L15.4713 36.1178ZM21.7591 38.8285C19.3753 37.9077 17.2458 36.964 15.4713 36.1178L10.3061 46.9493C12.3143 47.907 14.7261 48.976 17.4351 50.0224L21.7591 38.8285ZM22.8983 51.5972L25.0462 46.937L14.148 41.914L12.0001 46.5741L22.8983 51.5972ZM24.8427 55.7497C23.0483 55.2665 22.1204 53.2848 22.8983 51.5972L12.0001 46.5741C8.11085 55.0125 12.7505 64.9209 21.7223 67.3369L24.8427 55.7497ZM25.7991 56.0073L24.8427 55.7497L21.7223 67.3369L22.6787 67.5945L25.7991 56.0073ZM29.5659 53.3927C29.3911 55.2428 27.5935 56.4905 25.7991 56.0073L22.6787 67.5945C31.6506 70.0106 40.6385 63.772 41.5127 54.5217L29.5659 53.3927ZM30.041 48.3646L29.5659 53.3927L41.5127 54.5217L41.9878 49.4935L30.041 48.3646ZM44.5314 43.9435C42.3845 43.7689 39.8116 43.4817 37.006 43.0115L35.0228 54.8465C38.2153 55.3815 41.1304 55.7066 43.5589 55.904L44.5314 43.9435Z"
      fill="white" mask="url(#path-1-outside-1_5_124)" />
  </g>
  <path
    d="M19.2655 49.9228L24.0232 39.6004L34.6174 42.4534L33.5481 53.769C33.1402 58.0858 28.9458 60.9972 24.7589 59.8697L23.8025 59.6121C19.6157 58.4846 17.4505 53.8607 19.2655 49.9228Z"
    fill="#EEEAE3" stroke="#57534E" stroke-width="4" />
  <path opacity="0.3" fill-rule="evenodd" clip-rule="evenodd"
    d="M31.5 57.0001C31.5 57.0001 28.9987 57.0001 26.7158 54.5275C26.1118 53.8734 25.5231 53.0461 25.0001 52.0001C24.3902 50.7804 23.9538 49.2769 23.6423 47.7006C22.6771 42.8151 22.9135 37.2303 22.9135 37.2303L19.3058 48.0625C17.7016 52.8793 20.7812 57.1869 24.8552 58.2811C26.9742 58.8502 29.3622 58.55 31.5 57.0001Z"
    fill="#57534E" />
  <path
    d="M52.2056 43.6009C51.5722 47.552 48.0336 50.248 44.0452 49.9238C39.8432 49.5821 34.1013 48.835 28.068 47.2103C22.0347 45.5855 16.6941 43.3482 12.8887 41.5335C9.27683 39.8111 7.57066 35.7027 9.00701 31.9678C15.513 15.0501 28.0521 4.24635 38.8545 7.15535C49.6569 10.0644 55.075 25.7039 52.2056 43.6009Z"
    fill="#EEEAE3" />
  <path opacity="0.3"
    d="M33.5 46C33.5 46 32 46.9425 28.5 46C25 45.0574 17.9462 42.1612 14.8131 40.3169C11.7463 38.5117 10.6433 34.7898 11.9367 31.4745C17.5796 17.0099 26.2067 7.59336 37 10.4999C27.0029 13.1237 26.5 26.449 27 31.4745C27.5 36.5 28.5 44 33.5 46Z"
    fill="#57534E" />
  <ellipse cx="5.55635" cy="8.93853" rx="5.55635" ry="8.93853"
    transform="matrix(0.999968 -0.00797188 0.0378587 0.999283 34.3628 22.824)" fill="#57534E" />
  <path
    d="M41.9573 10.4216C40.6835 14.635 36.3981 17.0786 32.3856 15.8795C30.0224 15.1732 28.2809 13.361 27.5088 11.1297C30.9324 7.45261 37.2171 7.10494 41.9573 10.4216Z"
    fill="#57534E" />
  <path
    d="M32.0141 43.5768C30.3898 47.1909 27.4328 45.3062 23.5001 43.6157C19.5673 41.9253 16.148 41.0693 17.7723 37.4552C19.3967 33.8411 23.9016 32.2816 27.8344 33.972C31.7672 35.6625 33.6385 39.9626 32.0141 43.5768Z"
    fill="#57534E" />
  <ellipse cx="3.9774" cy="3.68785" rx="3.9774" ry="3.68785"
    transform="matrix(0.900493 0.434871 -0.453906 0.89105 23.3116 20.1537)" fill="#57534E" />
  <path
    d="M10.8737 32.6857C14.032 24.4732 18.6185 17.8488 23.6063 13.6578C28.6104 9.45291 33.7866 7.86185 38.3344 9.08655C42.8823 10.3112 46.5595 14.2865 48.7754 20.4356C50.984 26.5646 51.6237 34.5964 50.2309 43.2843C49.7676 46.1736 47.1862 48.1725 44.2073 47.9303C40.0857 47.5952 34.4706 46.8632 28.588 45.2791C22.7055 43.6949 17.4821 41.5082 13.7496 39.7283C11.0519 38.4418 9.82337 35.4169 10.8737 32.6857Z"
    stroke="#57534E" stroke-width="4" />
  <defs>
    <filter id="filter0_d_5_124" x="0.494751" y="0.677246" width="60.4716" height="71.4397"
      filterUnits="userSpaceOnUse" color-interpolation-filters="sRGB">
      <feFlood flood-opacity="0" result="BackgroundImageFix" />
      <feColorMatrix in="SourceAlpha" type="matrix"
        values="0 0 0 0 0 0 0 0 0 0 0 0 0 0 0 0 0 0 127 0" result="hardAlpha" />
      <feOffset dy="2" />
      <feGaussianBlur stdDeviation="1" />
      <feComposite in2="hardAlpha" operator="out" />
      <feColorMatrix type="matrix"
        values="0 0 0 0 0.160784 0 0 0 0 0.145098 0 0 0 0 0.141176 0 0 0 0.15 0" />
      <feBlend mode="normal" in2="BackgroundImageFix" result="effect1_dropShadow_5_124" />
      <feBlend mode="normal" in="SourceGraphic" in2="effect1_dropShadow_5_124" result="shape" />
    </filter>
  </defs>
</svg>
  