<svg width="117" height="66" viewBox="0 0 117 66" fill="none" xmlns="http://www.w3.org/2000/svg">
  <g filter="url(#filter0_d_5_139)">
    <path
      d="M26.371 7.05912C41.0006 9.07704 50.2823 14.9456 52.5523 16.8662C54.8223 18.7867 57.4872 19.5531 59.7207 20.0904C59.8492 22.1277 60.7601 25.153 57.8992 27.6624C54.4503 26.8328 50.7017 31.0862 49.4783 32.8767C48.2549 34.6672 44.2942 38.982 41.043 40.7772C32.3173 45.5956 18.2686 40.4036 13.6762 34.1939C11.0935 30.7016 10.4984 24.3535 11.5141 18.6623C11.8295 16.8955 9.41594 16.3333 8.99817 14.2783C8.58041 12.2233 9.49423 7.88259 10.8353 6.64157C12.1763 5.40055 23.3227 6.73119 26.371 7.05912Z"
      fill="#57534E" />
    <path
      d="M94.5929 23.4705C80.6461 18.6141 69.7109 19.6194 66.8158 20.2974C63.9207 20.9754 62.5707 20.7736 59.2286 19.9696C58.1876 21.7255 56.0084 23.9723 57.4151 27.5083C60.7572 28.3123 61.9967 33.8033 62.2719 35.9543C62.5471 38.1053 64.1122 43.7494 66.1912 46.8269C71.7708 55.0865 86.6438 56.8519 93.5579 53.4102C97.4464 51.4746 100.864 46.0916 102.547 40.5611C103.07 38.8442 105.475 39.4412 106.782 37.8011C108.088 36.1609 109.249 31.8794 108.619 30.1643C107.989 28.4491 97.4569 24.5648 94.5929 23.4705Z"
      fill="#57534E" />
    <path
      d="M26.7809 4.08726L26.7365 4.08113L26.6919 4.07633C26.4882 4.05442 26.2442 4.02754 25.9661 3.9969C24.2142 3.8039 21.1061 3.46149 18.1591 3.26841C16.4585 3.15699 14.7268 3.08908 13.2953 3.13896C12.5865 3.16366 11.8621 3.21972 11.2137 3.34043C10.7392 3.42877 9.64794 3.65287 8.79766 4.43972C8.01643 5.16268 7.50692 6.10682 7.17409 6.86959C6.81599 7.69027 6.53675 8.59732 6.3333 9.48316C5.94952 11.1541 5.72552 13.239 6.05831 14.876C6.44616 16.7839 7.72546 18.0313 8.27876 18.5709C8.32714 18.618 8.36998 18.6598 8.40618 18.6961C8.42424 18.7143 8.44132 18.7315 8.45746 18.7479C7.9909 21.6836 7.90874 24.7666 8.26929 27.6278C8.64954 30.6453 9.55471 33.6662 11.2642 35.9777C14.0844 39.7911 19.4223 42.9239 24.9892 44.5067C30.573 46.0943 37.1705 46.3427 42.4932 43.4034C44.4752 42.309 46.5078 40.5574 48.1267 38.962C49.7547 37.3578 51.1958 35.6807 51.9553 34.5691C52.4368 33.8645 53.4765 32.6038 54.6963 31.6548C55.801 30.7954 56.5555 30.5667 56.9752 30.5585C57.2787 30.7749 57.7473 31.2906 58.245 32.4284C58.8554 33.8238 59.1808 35.4329 59.2962 36.335C59.467 37.6705 59.9877 39.8194 60.708 41.9885C61.4243 44.1457 62.4378 46.63 63.7052 48.5062C67.1089 53.5446 73.0974 56.324 78.7924 57.4496C84.4701 58.5718 90.6489 58.2094 94.8948 56.0958C97.4685 54.8147 99.6486 52.5359 101.36 50.0215C102.982 47.6373 104.311 44.8542 105.231 42.0275C105.252 42.0203 105.275 42.0127 105.3 42.0048C105.349 41.9889 105.406 41.9712 105.47 41.9512C106.208 41.7223 107.915 41.1931 109.128 39.6704C110.169 38.3638 110.918 36.4052 111.336 34.7425C111.558 33.861 111.721 32.9262 111.776 32.0325C111.826 31.2018 111.802 30.1292 111.435 29.13C111.036 28.0426 110.166 27.3467 109.783 27.0522C109.261 26.6498 108.641 26.2704 108.021 25.9261C106.769 25.2306 105.196 24.5035 103.63 23.8293C100.918 22.661 97.9942 21.5523 96.3463 20.9275C96.0846 20.8283 95.8551 20.7413 95.6637 20.6681L95.6218 20.6521L95.5795 20.6374C81.1089 15.5986 69.5945 16.5654 66.1317 17.3764C64.868 17.6724 64.1093 17.7384 63.3673 17.6945C62.5549 17.6463 61.629 17.461 59.9639 17.0609C57.9615 16.5569 56.0667 15.9098 54.49 14.5759C51.7748 12.2787 41.9599 6.18095 26.7809 4.08726Z"
      stroke="white" stroke-width="6" />
  </g>
  <path
    d="M19.6381 11.7566C24.2769 8.18129 44.856 14.1748 48.0912 18.6012C51.3264 23.0276 45.8905 33.7077 38.98 37.5183C32.0694 41.3289 20.9404 37.2177 17.3014 32.3033C13.6625 27.3889 14.9993 15.3318 19.6381 11.7566Z"
    fill="#EEEAE3" />
  <path
    d="M98.4529 30.7161C95.9476 25.4222 74.8941 21.4007 69.9998 23.8714C65.1054 26.3422 65.0893 38.326 69.5108 44.8626C73.9322 51.3992 85.7134 52.7993 91.1893 50.0776C96.6652 47.3559 100.958 36.0099 98.4529 30.7161Z"
    fill="#EEEAE3" />
  <path fill-rule="evenodd" clip-rule="evenodd"
    d="M90.1671 25.741C88.6935 25.2605 87.1178 24.833 85.5159 24.4699L87.8508 51.1151C89.1052 50.8962 90.2417 50.5487 91.1893 50.0777C91.5463 49.9002 91.8983 49.6861 92.2437 49.4394L90.1671 25.741ZM83.8588 51.382L81.4324 23.6926C77.9684 23.158 74.6841 22.9741 72.3598 23.2583L74.6291 49.1542C77.4449 50.5696 80.7662 51.294 83.8588 51.382Z"
    fill="white" />
  <path fill-rule="evenodd" clip-rule="evenodd"
    d="M37.4022 13.0514C36.0886 12.6329 34.733 12.2518 33.3799 11.9231L35.7265 38.7016C36.8764 38.4607 37.973 38.0736 38.98 37.5183C39.1607 37.4187 39.3403 37.3144 39.5189 37.2056L37.4022 13.0514ZM31.7366 38.9929L29.292 11.096C25.5237 10.4987 22.159 10.4682 20.2813 11.367L22.4766 36.4199C25.2148 37.8512 28.5206 38.8421 31.7366 38.9929Z"
    fill="white" />
  <defs>
    <filter id="filter0_d_5_139" x="0.896606" y="0.122314" width="115.899" height="64.9495"
      filterUnits="userSpaceOnUse" color-interpolation-filters="sRGB">
      <feFlood flood-opacity="0" result="BackgroundImageFix" />
      <feColorMatrix in="SourceAlpha" type="matrix"
        values="0 0 0 0 0 0 0 0 0 0 0 0 0 0 0 0 0 0 127 0" result="hardAlpha" />
      <feOffset dy="2" />
      <feGaussianBlur stdDeviation="1" />
      <feComposite in2="hardAlpha" operator="out" />
      <feColorMatrix type="matrix"
        values="0 0 0 0 0.160784 0 0 0 0 0.145098 0 0 0 0 0.141176 0 0 0 0.15 0" />
      <feBlend mode="normal" in2="BackgroundImageFix" result="effect1_dropShadow_5_139" />
      <feBlend mode="normal" in="SourceGraphic" in2="effect1_dropShadow_5_139" result="shape" />
    </filter>
  </defs>
</svg>
  