<svg width="314" height="187" viewBox="0 0 314 187" fill="none" xmlns="http://www.w3.org/2000/svg">
  <g opacity="0.5">
    <path fill-rule="evenodd" clip-rule="evenodd"
      d="M229.507 170.656C228.196 167.679 227.571 164.444 227.913 161.293L202.457 146.609C200 138.752 197.283 130.102 194.29 120.583C190.165 107.526 186.603 96.1848 183.508 86.3015L313.971 1.04409e-05C315.039 19.0097 286.914 40.7609 206.324 84.796C253.392 66.1384 276.517 54.1882 307.492 28.1822C308.007 51.9212 281.877 66.0575 211.058 92.0286L212.821 91.5369C249.005 81.4428 269.83 75.6334 298.771 59.6066C293.482 80.4309 272.723 88.8113 216.789 100.259C250.063 98.6275 263.303 95.7106 279.584 87.7888C276.874 105.044 257.197 108.236 214.547 111.232C216.403 111.562 218.15 111.887 219.826 112.2C232.778 114.614 241.465 116.233 263.636 112.729C252.54 130.312 238.404 126.53 216.357 120.632L216.355 120.631L216.341 120.628C214.316 120.086 212.224 119.526 210.061 118.964C220.406 126.792 227.937 129.976 244.947 133.18C236.643 138.423 224.236 138.767 205.039 135.614L231.505 153.121C234.354 149.9 238.452 148.141 242.766 147.67C248.047 147.094 253.93 148.382 259.275 151.471C264.621 154.56 268.677 159.015 270.818 163.88C272.394 167.458 272.978 171.407 272.085 175.136C278.105 177.746 282.465 177.388 287.723 174.928C291.266 173.534 292.521 176.119 291.361 177.455C283.95 183.877 278.798 184.58 269.034 181.168C266.179 184.547 261.982 186.384 257.559 186.866C252.279 187.442 246.396 186.154 241.05 183.066C235.704 179.977 231.649 175.521 229.507 170.656ZM264.058 175.298C265.319 173.111 265.418 170.162 263.98 166.896C262.543 163.633 259.655 160.327 255.539 157.949C251.423 155.57 247.118 154.72 243.576 155.106C240.031 155.493 237.528 157.052 236.267 159.239C235.006 161.425 234.908 164.374 236.346 167.64C237.782 170.904 240.671 174.21 244.787 176.588C248.902 178.966 253.207 179.817 256.749 179.431C260.294 179.044 262.797 177.484 264.058 175.298Z"
      fill="white" />
    <path fill-rule="evenodd" clip-rule="evenodd"
      d="M86.4129 161.105L110.437 147.247L128.371 84.8983L0.0291753 0C-1.03905 19.0097 27.0856 40.7608 107.676 84.796C60.6076 66.1384 37.4827 54.1882 6.50794 28.1822C5.99292 51.9212 32.1232 66.0574 102.942 92.0286L101.179 91.5369C64.9953 81.4428 44.1701 75.6333 15.2293 59.6066C20.5184 80.4308 41.2771 88.8113 97.2106 100.259C63.9369 98.6275 50.6966 95.7105 34.4165 87.7888C37.1265 105.044 56.8029 108.236 99.4533 111.232C97.5966 111.562 95.8497 111.887 94.1742 112.2C81.2222 114.614 72.5345 116.233 50.3642 112.729C61.4604 130.312 75.5965 126.53 97.6428 120.632L97.6458 120.631L97.6491 120.63C99.6774 120.088 101.773 119.527 103.939 118.964C93.5938 126.792 86.0628 129.976 69.0529 133.18C77.3572 138.423 89.7645 138.767 108.961 135.614L82.7136 152.977C79.8707 149.847 75.8306 148.134 71.5814 147.67C66.3013 147.094 60.4182 148.382 55.0727 151.471C49.7271 154.56 45.6713 159.015 43.5296 163.88C41.3891 168.742 41.0781 174.288 43.8178 179.038C46.5574 183.787 51.512 186.291 56.7891 186.866C62.0693 187.442 67.9523 186.154 73.2979 183.066C78.6434 179.977 82.6992 175.521 84.8409 170.656C86.178 167.619 86.8012 164.315 86.4129 161.105ZM50.3682 166.896C48.9303 170.162 49.0284 173.111 50.2897 175.298C51.5509 177.484 54.0536 179.044 57.5988 179.431C61.141 179.817 65.4454 178.966 69.5613 176.588C73.6773 174.21 76.5655 170.904 78.0023 167.64C79.4403 164.374 79.3421 161.425 78.0809 159.239C76.8196 157.052 74.3169 155.493 70.7718 155.106C67.2296 154.72 62.9252 155.57 58.8092 157.949C54.6933 160.327 51.805 163.633 50.3682 166.896Z"
      fill="white" />
  </g>
  <path fill-rule="evenodd" clip-rule="evenodd"
    d="M136.238 170.974H134.183C125.775 170.974 122.225 164.747 125.962 151.6L131.941 130.151H170.803L177.716 153.503C181.827 167.168 178.277 170.974 166.88 170.974V175.471L213.916 175.471V170.973H212.047C205.148 170.973 199.759 167.829 195.673 158.674C192.753 148.665 188.181 134.268 181.64 113.718C176.784 98.5387 173.098 86.8845 170.23 77.8164L170.226 77.802C163.718 57.2246 161.424 49.969 159.219 45.0467L157.724 44.0088H151.185L119.796 151.773C115.499 166.303 109.333 170.974 100.925 170.974H99.0569V175.471H136.238V170.974ZM169.309 125.308H133.435L150.811 63.0362L169.309 125.308Z"
    fill="white" />
</svg>
  