<svg width="208" height="199" viewBox="0 0 208 199" fill="none" xmlns="http://www.w3.org/2000/svg">
  <path fill-rule="evenodd" clip-rule="evenodd"
    d="M169.621 70.569L175.367 56.7563L207.319 95.0984L103.659 198.758L0 95.0984L53.2086 31.2481H107.207L145.084 88.0633H184.199L169.621 70.569ZM146.024 101.32H182.349L121.807 161.862L146.024 101.32ZM131.746 101.32L103.659 171.537L75.5729 101.32H131.746ZM85.5115 161.862L61.2949 101.32H24.9698L85.5115 161.862ZM52.1514 53.2246L23.1192 88.0633H57.9578L52.1514 53.2246ZM78.1678 88.0633L103.659 49.8261L129.151 88.0633H78.1678ZM64.1378 44.5049H91.274L69.565 77.0682L64.1378 44.5049Z"
    fill="white" />
  <path opacity="0.5"
    d="M161.927 23.725L179.78 32.8821L161.927 44.3283L152.725 70.3426L143.522 44.3283L125.669 32.8821L143.522 23.725L152.725 0L161.927 23.725Z"
    fill="white" />
</svg>
  